<svg width="188" height="25" viewBox="0 0 188 25" fill="none" xmlns="http://www.w3.org/2000/svg">
<path d="M27.1009 0.111328H32.3039V6.31726L35.4549 9.56226H42.38L45.8486 6.45928V0.111328H51.5278V7.58467L46.8012 11.8895L51.5278 16.0413V23.6567H45.8486V17.5928L42.5387 14.0746L35.6137 13.9326L32.3039 17.3087V23.6567H26.4658V15.6152L31.3512 11.8895L27.1009 7.72669V0.111328Z" fill="#EFF1F3"/>
<path d="M54.3594 0.111328H59.7211V10.2615L63.5073 13.0804H69.4918L73.1192 9.56226V0.111328H78.9451V10.8296L70.8231 18.0189H69.0155V23.6567H64.2889L64.1301 18.0189L61.6142 17.8769L54.3594 11.8895V0.111328Z" fill="#EFF1F3"/>
<path d="M81.4629 0.111328H87.4597V9.13615H100.064V0.111328H105.584V23.6567H100.064L99.9052 13.7906H86.9834L87.3009 23.6567H81.4629V0.111328Z" fill="#EFF1F3"/>
<path d="M136.155 4.90781L141.981 0.111328H154.28L160.106 4.90781V9.56226H155.062L154.903 5.89115L152.387 4.05559L143.715 4.19763L141.981 6.45928V17.3087L144.033 19.4284H152.228L155.062 17.5928V14.4898L160.106 14.3478V19.4284L154.744 24.3559H141.981L136.155 18.8602V4.90781Z" fill="#EFF1F3"/>
<path d="M163.256 0.111328H168.776V9.70428H178.388L181.857 4.9078V0.111328H188V5.46504L183.432 10.9717L188 14.9159V23.6567H181.381L181.539 17.1667L178.547 14.6319L168.459 14.4898L168.935 23.6567H163.256V0.111328Z" fill="#EFF1F3"/>
<path d="M5.1897 0.111328H18.2703L16.3772 4.9078H7.55911L5.1897 0.111328Z" fill="#EFF1F3"/>
<path d="M23.9513 5.46504L18.272 7.01652L16.3789 4.9078L18.272 0.111328L23.9513 5.46504Z" fill="#EFF1F3"/>
<path d="M23.9507 18.5761L18.2715 16.8935V7.01651L23.9507 5.46503V18.5761Z" fill="#EFF1F3"/>
<path d="M16.5361 18.8602L18.2704 16.8936L23.9497 18.5762L18.4292 23.6567L16.5361 18.8602Z" fill="#EFF1F3"/>
<path d="M5.1897 23.6567L7.24156 18.8602H16.536L18.4291 23.6567H5.1897Z" fill="#EFF1F3"/>
<path d="M5.03194 16.7515L0 18.5761L5.19072 23.6566L7.24258 18.8602L5.03194 16.7515Z" fill="#EFF1F3"/>
<path d="M5.03194 7.01651L0 5.46503V18.5761L5.03194 16.7515V7.01651Z" fill="#EFF1F3"/>
<path d="M7.56013 4.9078L5.19072 0.111328L0 5.46504L5.03194 7.01652L7.56013 4.9078Z" fill="#EFF1F3"/>
<path d="M113.328 11.0919H116.394H127.96V16.2598H114.085L113.328 11.0919Z" fill="#EFF1F3"/>
<path d="M108.896 4.90787L114.086 0.111389L116.773 4.90787L114.086 6.53583L108.896 4.90787Z" fill="#EFF1F3"/>
<path d="M114.563 23.6567L114.086 6.53574L108.896 4.90778V23.6567H114.563Z" fill="#EFF1F3"/>
<path d="M125.749 4.90787H116.772L114.085 0.111389H127.324L125.749 4.90787Z" fill="#EFF1F3"/>
<path d="M132.686 4.90787L127.96 6.53583L125.749 4.90787L127.325 0.111389L132.686 4.90787Z" fill="#EFF1F3"/>
<path d="M132.686 23.6567H127.959V11.0918V6.53574L132.686 4.90778V23.6567Z" fill="#EFF1F3"/>
</svg>
